#!OML:ASF F:\VICON\USERDATA\INSTALL\rory3\rory3.ASF
:FULLY-SPECIFIED
:DEGREES
107
root 0.367955 17.8298 -8.60495 -2.95408 -0.913456 2.34856
lowerback 11.1031 -0.468352 -3.82075
upperback 0.478486 -1.06625 0.665142
thorax -5.64966 -0.416233 3.0223
lowerneck -16.2104 -2.8416 -1.32743
upperneck 21.6931 -3.65587 0.120999
head 9.56099 -1.79942 -0.209269
rclavicle 5.50385e-015 6.36111e-015
rhumerus -33.2305 -17.0979 -77.0874
rradius 26.261
rwrist 2.32289
rhand -18.526 24.7562
rfingers 7.12502
rthumb 7.76264 -5.08136
lclavicle 5.50385e-015 6.36111e-015
lhumerus -27.8793 -3.97767 81.5318
lradius 29.6527
lwrist 7.45327
lhand -25.2 31.1853
lfingers 7.12502
lthumb 1.3184 61.1609
rfemur -32.9469 2.26365 19.517
rtibia 46.9834
rfoot -7.84489 -8.43987
rtoes -1.27142
lfemur 3.31586 -2.46907 -28.6089
ltibia 23.524
lfoot -19.4423 -2.06799
ltoes 3.87842
108
root 0.354258 17.835 -8.42332 -2.89107 -0.776586 2.56147
lowerback 10.8979 -0.507971 -4.11301
upperback 0.582462 -1.14598 0.644827
thorax -5.41352 -0.455752 3.17248
lowerneck -16.2662 -2.86761 -1.36882
upperneck 21.4655 -3.68663 0.161426
head 9.49343 -1.81288 -0.191085
rclavicle 2.36554e-014 1.59028e-014
rhumerus -33.3845 -17.524 -76.8125
rradius 26.0469
rwrist 2.62646
rhand -17.4541 27.5701
rfingers 7.12502
rthumb 8.79718 -2.22654
lclavicle 2.36554e-014 1.59028e-014
lhumerus -27.4019 -4.44993 81.5217
lradius 30.0126
lwrist 7.56202
lhand -25.1899 30.5054
lfingers 7.12502
lthumb 1.32813 60.481
rfemur -32.6149 2.81181 18.954
rtibia 43.5375
rfoot -7.23645 -8.53801
rtoes 2.07653
lfemur 4.60551 -2.23252 -28.8002
ltibia 22.0976
lfoot -18.8604 -1.96926
ltoes 5.76025
109
root 0.343383 17.8681 -8.24154 -2.66796 -0.542219 2.67236
lowerback 10.7012 -0.647003 -4.34404
upperback 0.505978 -1.34704 0.72746
thorax -5.35993 -0.548236 3.41651
lowerneck -15.9114 -2.83746 -1.53549
upperneck 21.1017 -3.60591 0.179077
head 9.30385 -1.7897 -0.137985
rclavicle 3.19795e-014 9.93923e-015
rhumerus -33.7944 -17.3593 -76.5875
rradius 26.0837
rwrist 2.64438
rhand -17.1979 26.7833
rfingers 7.12502
rthumb 9.0444 -3.00279
lclavicle 3.19795e-014 9.93923e-015
lhumerus -27.0483 -4.67614 81.5458
lradius 30.1418
lwrist 7.55142
lhand -26.519 30.2196
lfingers 7.12502
lthumb 0.0444429 60.1993
rfemur -33.2015 3.03339 18.6767
rtibia 39.8995
rfoot -6.19277 -9.70048
rtoes 1.45243
lfemur 5.65884 -2.01909 -28.8438
ltibia 20.7817
lfoot -18.113 -1.78877
ltoes 6.75003
110
root 0.331478 17.8343 -8.06178 -2.29224 -0.308764 2.58903
lowerback 10.4164 -0.769541 -4.23986
upperback 0.314668 -1.48602 0.768539
thorax -5.39072 -0.614738 3.4168
lowerneck -15.7381 -2.84427 -1.56097
upperneck 21.1091 -3.61885 0.20628
head 9.27557 -1.79568 -0.123448
rclavicle -1.93815e-015 2.38542e-015
rhumerus -34.3641 -17.2418 -76.4533
rradius 26.1956
rwrist 2.67576
rhand -17.3723 26.2104
rfingers 7.12502
rthumb 8.87605 -3.58291
lclavicle -1.93815e-015 2.38542e-015
lhumerus -26.7728 -4.86931 81.4434
lradius 30.3826
lwrist 7.38108
lhand -28.1057 31.0644
lfingers 7.12502
lthumb -1.48803 61.0389
rfemur -32.5805 3.25398 18.6115
rtibia 36.5144
rfoot -6.5406 -10.3177
rtoes 1.82704
lfemur 6.59259 -1.89731 -28.7056
ltibia 19.7495
lfoot -18.4735 -1.85171
ltoes 4.45993
